# Blender v2.80 (sub 75) OBJ File: 'zodiac.blend'
# www.blender.org
mtllib zodiac_rump.mtl
o Cube_Cube.001
v -3.046599 -0.119318 0.997703
v -3.184982 0.502220 0.997703
v -3.046599 -0.119318 -0.005779
v -3.184982 0.502220 -0.005779
v 0.851636 -0.119318 0.900915
v 0.851636 0.502220 0.900915
v 0.851636 -0.119318 -0.005779
v 0.851636 0.502220 -0.005779
v 2.993267 0.605999 0.172154
v 2.993267 0.783652 0.172154
v 2.993267 0.605999 -0.005779
v 2.993267 0.783652 -0.005779
v 1.840487 -0.032718 -0.005779
v 1.691043 0.572956 0.745452
v 1.840487 -0.032718 0.709209
v 1.691043 0.572956 -0.005779
v 2.451056 0.173456 -0.005779
v 2.316954 0.662046 0.537879
v 2.316954 0.662046 -0.005779
v 2.451056 0.173456 0.475277
v 2.738990 0.358343 -0.005779
v 2.631840 0.712855 -0.005779
v 2.738990 0.358343 0.303947
v 2.631839 0.712855 0.376433
v 2.174103 0.048586 -0.005779
v 2.020488 0.616258 0.656492
v 2.174103 0.048586 0.597185
v 2.020489 0.616258 -0.005779
v -0.500458 0.502220 1.000549
v -0.500459 -0.119318 -0.005779
v -0.500461 -0.119318 1.001700
v -0.500458 0.502220 -0.005779
v -3.046599 -0.119318 -0.997703
v -3.184982 0.502220 -0.997703
v -3.046599 -0.119318 0.005779
v -3.184982 0.502220 0.005779
v 0.851636 -0.119318 -0.900915
v 0.851636 0.502220 -0.900915
v 0.851636 -0.119318 0.005779
v 0.851636 0.502220 0.005779
v 2.993267 0.605999 -0.172154
v 2.993267 0.783652 -0.172154
v 2.993267 0.605999 0.005779
v 2.993267 0.783652 0.005779
v 1.840487 -0.032718 0.005779
v 1.691043 0.572956 -0.745452
v 1.840487 -0.032718 -0.709209
v 1.691043 0.572956 0.005779
v 2.451056 0.173456 0.005779
v 2.316954 0.662046 -0.537879
v 2.316954 0.662046 0.005779
v 2.451056 0.173456 -0.475277
v 2.738991 0.358343 0.005779
v 2.631840 0.712855 0.005779
v 2.738991 0.358343 -0.303947
v 2.631840 0.712855 -0.376433
v 2.174103 0.048586 0.005779
v 2.020488 0.616258 -0.656492
v 2.174103 0.048586 -0.597185
v 2.020489 0.616258 0.005779
v -0.500458 0.502220 -1.000549
v -0.500459 -0.119318 0.005779
v -0.500461 -0.119318 -1.001700
v -0.500458 0.502220 0.005779
vt 0.375000 0.000000
vt 0.625000 0.000000
vt 0.625000 0.250000
vt 0.375000 0.250000
vt 0.625000 0.416261
vt 0.375000 0.413288
vt 0.625000 0.750000
vt 0.375000 0.750000
vt 0.375000 0.750000
vt 0.625000 0.750000
vt 0.625000 0.833739
vt 0.375000 0.836712
vt 0.125000 0.500000
vt 0.288288 0.500000
vt 0.288288 0.750000
vt 0.125000 0.750000
vt 0.625000 0.500000
vt 0.708739 0.500000
vt 0.708739 0.750000
vt 0.375000 0.500000
vt 0.625000 0.500000
vt 0.625000 0.750000
vt 0.375000 0.750000
vt 0.375000 0.500000
vt 0.375000 0.500000
vt 0.625000 0.500000
vt 0.375000 0.500000
vt 0.375000 0.750000
vt 0.625000 0.750000
vt 0.625000 0.500000
vt 0.375000 0.500000
vt 0.625000 0.500000
vt 0.625000 0.500000
vt 0.375000 0.500000
vt 0.375000 0.750000
vt 0.375000 0.750000
vt 0.625000 0.750000
vt 0.625000 0.750000
vt 0.875000 0.500000
vt 0.875000 0.750000
vt 0.625000 1.000000
vt 0.375000 1.000000
vt 0.375000 0.000000
vt 0.375000 0.250000
vt 0.625000 0.250000
vt 0.625000 0.000000
vt 0.375000 0.413288
vt 0.625000 0.416261
vt 0.625000 0.750000
vt 0.625000 0.750000
vt 0.375000 0.750000
vt 0.375000 0.750000
vt 0.375000 0.836712
vt 0.625000 0.833739
vt 0.125000 0.500000
vt 0.125000 0.750000
vt 0.288288 0.750000
vt 0.288288 0.500000
vt 0.625000 0.500000
vt 0.708739 0.750000
vt 0.708739 0.500000
vt 0.375000 0.500000
vt 0.375000 0.750000
vt 0.625000 0.750000
vt 0.625000 0.500000
vt 0.375000 0.500000
vt 0.375000 0.500000
vt 0.625000 0.500000
vt 0.375000 0.750000
vt 0.375000 0.500000
vt 0.625000 0.500000
vt 0.625000 0.750000
vt 0.375000 0.500000
vt 0.375000 0.500000
vt 0.625000 0.500000
vt 0.625000 0.500000
vt 0.375000 0.750000
vt 0.375000 0.750000
vt 0.625000 0.750000
vt 0.625000 0.750000
vt 0.875000 0.750000
vt 0.875000 0.500000
vt 0.375000 1.000000
vt 0.625000 1.000000
vn -0.9761 -0.2173 0.0000
vn 0.0000 0.0000 -1.0000
vn 0.1871 -0.0062 0.9823
vn 0.0739 0.0009 0.9973
vn 0.0000 -1.0000 0.0000
vn 0.0000 1.0000 0.0000
vn 1.0000 0.0000 0.0000
vn 0.0872 -0.9962 0.0000
vn -0.0840 0.9965 0.0000
vn 0.2368 -0.9716 0.0000
vn -0.1303 0.9915 -0.0000
vn 0.2906 -0.0029 0.9568
vn 0.5403 -0.8415 -0.0000
vn -0.1593 0.9872 0.0000
vn 0.4838 -0.0018 0.8752
vn -0.1922 0.9813 -0.0000
vn 0.4873 -0.0208 0.8730
vn 0.6977 -0.7164 0.0000
vn 0.4110 -0.9116 0.0000
vn -0.1526 0.9883 0.0000
vn 0.3871 -0.0010 0.9221
vn -0.0013 0.0008 1.0000
vn 0.0000 0.0000 1.0000
vn 0.1871 -0.0062 -0.9823
vn 0.0739 0.0009 -0.9973
vn 0.2906 -0.0029 -0.9568
vn 0.4838 -0.0018 -0.8752
vn 0.4873 -0.0208 -0.8730
vn 0.3871 -0.0010 -0.9221
vn -0.0013 0.0008 -1.0000
usemtl None
s off
f 1/1/1 2/2/1 4/3/1 3/4/1
f 3/4/2 4/3/2 32/5/2 30/6/2
f 6/7/3 5/8/3 15/9/3 14/10/3
f 5/8/4 6/7/4 29/11/4 31/12/4
f 3/13/5 30/14/5 31/15/5 1/16/5
f 8/17/6 32/18/6 29/19/6 6/7/6
f 11/20/7 12/21/7 10/22/7 9/23/7
f 5/8/8 7/24/8 13/25/8 15/9/8
f 8/17/9 6/7/9 14/10/9 16/26/9
f 7/24/2 8/17/2 16/26/2 13/25/2
f 15/9/10 13/25/10 25/27/10 27/28/10
f 16/26/11 14/10/11 26/29/11 28/30/11
f 14/10/12 15/9/12 27/28/12 26/29/12
f 13/25/2 16/26/2 28/30/2 25/27/2
f 17/31/2 19/32/2 22/33/2 21/34/2
f 20/35/13 17/31/13 21/34/13 23/36/13
f 19/32/14 18/37/14 24/38/14 22/33/14
f 18/37/15 20/35/15 23/36/15 24/38/15
f 22/33/16 24/38/16 10/22/16 12/21/16
f 24/38/17 23/36/17 9/23/17 10/22/17
f 21/34/2 22/33/2 12/21/2 11/20/2
f 23/36/18 21/34/18 11/20/18 9/23/18
f 25/27/2 28/30/2 19/32/2 17/31/2
f 27/28/19 25/27/19 17/31/19 20/35/19
f 28/30/20 26/29/20 18/37/20 19/32/20
f 26/29/21 27/28/21 20/35/21 18/37/21
f 30/6/2 32/5/2 8/17/2 7/24/2
f 29/19/6 32/18/6 4/39/6 2/40/6
f 31/12/22 29/11/22 2/41/22 1/42/22
f 31/15/5 30/14/5 7/24/5 5/8/5
f 33/43/1 35/44/1 36/45/1 34/46/1
f 35/44/23 62/47/23 64/48/23 36/45/23
f 38/49/24 46/50/24 47/51/24 37/52/24
f 37/52/25 63/53/25 61/54/25 38/49/25
f 35/55/5 33/56/5 63/57/5 62/58/5
f 40/59/6 38/49/6 61/60/6 64/61/6
f 43/62/7 41/63/7 42/64/7 44/65/7
f 37/52/8 47/51/8 45/66/8 39/67/8
f 40/59/9 48/68/9 46/50/9 38/49/9
f 39/67/23 45/66/23 48/68/23 40/59/23
f 47/51/10 59/69/10 57/70/10 45/66/10
f 48/68/11 60/71/11 58/72/11 46/50/11
f 46/50/26 58/72/26 59/69/26 47/51/26
f 45/66/23 57/70/23 60/71/23 48/68/23
f 49/73/23 53/74/23 54/75/23 51/76/23
f 52/77/13 55/78/13 53/74/13 49/73/13
f 51/76/14 54/75/14 56/79/14 50/80/14
f 50/80/27 56/79/27 55/78/27 52/77/27
f 54/75/16 44/65/16 42/64/16 56/79/16
f 56/79/28 42/64/28 41/63/28 55/78/28
f 53/74/23 43/62/23 44/65/23 54/75/23
f 55/78/18 41/63/18 43/62/18 53/74/18
f 57/70/23 49/73/23 51/76/23 60/71/23
f 59/69/19 52/77/19 49/73/19 57/70/19
f 60/71/20 51/76/20 50/80/20 58/72/20
f 58/72/29 50/80/29 52/77/29 59/69/29
f 62/47/23 39/67/23 40/59/23 64/48/23
f 61/60/6 34/81/6 36/82/6 64/61/6
f 63/53/30 33/83/30 34/84/30 61/54/30
f 63/57/5 37/52/5 39/67/5 62/58/5
